<svg width="570" height="212" viewBox="0 0 570 212" fill="none" xmlns="http://www.w3.org/2000/svg">
<rect x="1.5" y="1.5" width="555" height="202" rx="48.5" stroke="#ABABAB" stroke-width="3"/>
<rect x="12" y="8" width="558" height="204" rx="50" fill="#D9D9D9"/>
<path d="M360.14 129.1V143H357.86V133.48L353.62 143H352.04L347.78 133.48V143H345.5V129.1H347.96L352.84 140L357.7 129.1H360.14ZM373.237 137.22C373.237 137.633 373.21 138.007 373.157 138.34H364.737C364.803 139.22 365.13 139.927 365.717 140.46C366.303 140.993 367.023 141.26 367.877 141.26C369.103 141.26 369.97 140.747 370.477 139.72H372.937C372.603 140.733 371.997 141.567 371.117 142.22C370.25 142.86 369.17 143.18 367.877 143.18C366.823 143.18 365.877 142.947 365.037 142.48C364.21 142 363.557 141.333 363.077 140.48C362.61 139.613 362.377 138.613 362.377 137.48C362.377 136.347 362.603 135.353 363.057 134.5C363.523 133.633 364.17 132.967 364.997 132.5C365.837 132.033 366.797 131.8 367.877 131.8C368.917 131.8 369.843 132.027 370.657 132.48C371.47 132.933 372.103 133.573 372.557 134.4C373.01 135.213 373.237 136.153 373.237 137.22ZM370.857 136.5C370.843 135.66 370.543 134.987 369.957 134.48C369.37 133.973 368.643 133.72 367.777 133.72C366.99 133.72 366.317 133.973 365.757 134.48C365.197 134.973 364.863 135.647 364.757 136.5H370.857ZM381.04 131.8C381.907 131.8 382.68 131.98 383.36 132.34C384.054 132.7 384.594 133.233 384.98 133.94C385.367 134.647 385.56 135.5 385.56 136.5V143H383.3V136.84C383.3 135.853 383.054 135.1 382.56 134.58C382.067 134.047 381.394 133.78 380.54 133.78C379.687 133.78 379.007 134.047 378.5 134.58C378.007 135.1 377.76 135.853 377.76 136.84V143H375.48V131.98H377.76V133.24C378.134 132.787 378.607 132.433 379.18 132.18C379.767 131.927 380.387 131.8 381.04 131.8ZM392.909 131.8C393.762 131.8 394.515 131.973 395.169 132.32C395.835 132.653 396.355 133.073 396.729 133.58V131.98H399.029V143.18C399.029 144.193 398.815 145.093 398.389 145.88C397.962 146.68 397.342 147.307 396.529 147.76C395.729 148.213 394.769 148.44 393.649 148.44C392.155 148.44 390.915 148.087 389.929 147.38C388.942 146.687 388.382 145.74 388.249 144.54H390.509C390.682 145.113 391.049 145.573 391.609 145.92C392.182 146.28 392.862 146.46 393.649 146.46C394.569 146.46 395.309 146.18 395.869 145.62C396.442 145.06 396.729 144.247 396.729 143.18V141.34C396.342 141.86 395.815 142.3 395.149 142.66C394.495 143.007 393.749 143.18 392.909 143.18C391.949 143.18 391.069 142.94 390.269 142.46C389.482 141.967 388.855 141.287 388.389 140.42C387.935 139.54 387.709 138.547 387.709 137.44C387.709 136.333 387.935 135.353 388.389 134.5C388.855 133.647 389.482 132.987 390.269 132.52C391.069 132.04 391.949 131.8 392.909 131.8ZM396.729 137.48C396.729 136.72 396.569 136.06 396.249 135.5C395.942 134.94 395.535 134.513 395.029 134.22C394.522 133.927 393.975 133.78 393.389 133.78C392.802 133.78 392.255 133.927 391.749 134.22C391.242 134.5 390.829 134.92 390.509 135.48C390.202 136.027 390.049 136.68 390.049 137.44C390.049 138.2 390.202 138.867 390.509 139.44C390.829 140.013 391.242 140.453 391.749 140.76C392.269 141.053 392.815 141.2 393.389 141.2C393.975 141.2 394.522 141.053 395.029 140.76C395.535 140.467 395.942 140.04 396.249 139.48C396.569 138.907 396.729 138.24 396.729 137.48ZM403.183 130.52C402.77 130.52 402.423 130.38 402.143 130.1C401.863 129.82 401.723 129.473 401.723 129.06C401.723 128.647 401.863 128.3 402.143 128.02C402.423 127.74 402.77 127.6 403.183 127.6C403.583 127.6 403.923 127.74 404.203 128.02C404.483 128.3 404.623 128.647 404.623 129.06C404.623 129.473 404.483 129.82 404.203 130.1C403.923 130.38 403.583 130.52 403.183 130.52ZM404.303 131.98V143H402.023V131.98H404.303ZM411.297 143.18C410.43 143.18 409.65 143.027 408.957 142.72C408.277 142.4 407.737 141.973 407.337 141.44C406.937 140.893 406.724 140.287 406.697 139.62H409.057C409.097 140.087 409.317 140.48 409.717 140.8C410.13 141.107 410.644 141.26 411.257 141.26C411.897 141.26 412.39 141.14 412.737 140.9C413.097 140.647 413.277 140.327 413.277 139.94C413.277 139.527 413.077 139.22 412.677 139.02C412.29 138.82 411.67 138.6 410.817 138.36C409.99 138.133 409.317 137.913 408.797 137.7C408.277 137.487 407.824 137.16 407.437 136.72C407.064 136.28 406.877 135.7 406.877 134.98C406.877 134.393 407.05 133.86 407.397 133.38C407.744 132.887 408.237 132.5 408.877 132.22C409.53 131.94 410.277 131.8 411.117 131.8C412.37 131.8 413.377 132.12 414.137 132.76C414.91 133.387 415.324 134.247 415.377 135.34H413.097C413.057 134.847 412.857 134.453 412.497 134.16C412.137 133.867 411.65 133.72 411.037 133.72C410.437 133.72 409.977 133.833 409.657 134.06C409.337 134.287 409.177 134.587 409.177 134.96C409.177 135.253 409.284 135.5 409.497 135.7C409.71 135.9 409.97 136.06 410.277 136.18C410.584 136.287 411.037 136.427 411.637 136.6C412.437 136.813 413.09 137.033 413.597 137.26C414.117 137.473 414.564 137.793 414.937 138.22C415.31 138.647 415.504 139.213 415.517 139.92C415.517 140.547 415.344 141.107 414.997 141.6C414.65 142.093 414.157 142.48 413.517 142.76C412.89 143.04 412.15 143.18 411.297 143.18ZM419.14 130.52C418.727 130.52 418.38 130.38 418.1 130.1C417.82 129.82 417.68 129.473 417.68 129.06C417.68 128.647 417.82 128.3 418.1 128.02C418.38 127.74 418.727 127.6 419.14 127.6C419.54 127.6 419.88 127.74 420.16 128.02C420.44 128.3 420.58 128.647 420.58 129.06C420.58 129.473 420.44 129.82 420.16 130.1C419.88 130.38 419.54 130.52 419.14 130.52ZM420.26 131.98V143H417.98V131.98H420.26ZM435.925 141.16H440.625V143H433.645V129.1H435.925V141.16ZM441.771 137.44C441.771 136.333 441.998 135.353 442.451 134.5C442.918 133.647 443.545 132.987 444.331 132.52C445.131 132.04 446.011 131.8 446.971 131.8C447.838 131.8 448.591 131.973 449.231 132.32C449.885 132.653 450.405 133.073 450.791 133.58V131.98H453.091V143H450.791V141.36C450.405 141.88 449.878 142.313 449.211 142.66C448.545 143.007 447.785 143.18 446.931 143.18C445.985 143.18 445.118 142.94 444.331 142.46C443.545 141.967 442.918 141.287 442.451 140.42C441.998 139.54 441.771 138.547 441.771 137.44ZM450.791 137.48C450.791 136.72 450.631 136.06 450.311 135.5C450.005 134.94 449.598 134.513 449.091 134.22C448.585 133.927 448.038 133.78 447.451 133.78C446.865 133.78 446.318 133.927 445.811 134.22C445.305 134.5 444.891 134.92 444.571 135.48C444.265 136.027 444.111 136.68 444.111 137.44C444.111 138.2 444.265 138.867 444.571 139.44C444.891 140.013 445.305 140.453 445.811 140.76C446.331 141.053 446.878 141.2 447.451 141.2C448.038 141.2 448.585 141.053 449.091 140.76C449.598 140.467 450.005 140.04 450.311 139.48C450.631 138.907 450.791 138.24 450.791 137.48ZM458.366 133.6C458.753 133.093 459.279 132.667 459.946 132.32C460.613 131.973 461.366 131.8 462.206 131.8C463.166 131.8 464.039 132.04 464.826 132.52C465.626 132.987 466.253 133.647 466.706 134.5C467.159 135.353 467.386 136.333 467.386 137.44C467.386 138.547 467.159 139.54 466.706 140.42C466.253 141.287 465.626 141.967 464.826 142.46C464.039 142.94 463.166 143.18 462.206 143.18C461.366 143.18 460.619 143.013 459.966 142.68C459.313 142.333 458.779 141.907 458.366 141.4V148.24H456.086V131.98H458.366V133.6ZM465.066 137.44C465.066 136.68 464.906 136.027 464.586 135.48C464.279 134.92 463.866 134.5 463.346 134.22C462.839 133.927 462.293 133.78 461.706 133.78C461.133 133.78 460.586 133.927 460.066 134.22C459.559 134.513 459.146 134.94 458.826 135.5C458.519 136.06 458.366 136.72 458.366 137.48C458.366 138.24 458.519 138.907 458.826 139.48C459.146 140.04 459.559 140.467 460.066 140.76C460.586 141.053 461.133 141.2 461.706 141.2C462.293 141.2 462.839 141.053 463.346 140.76C463.866 140.453 464.279 140.013 464.586 139.44C464.906 138.867 465.066 138.2 465.066 137.44ZM474.421 143.18C473.381 143.18 472.441 142.947 471.601 142.48C470.761 142 470.101 141.333 469.621 140.48C469.141 139.613 468.901 138.613 468.901 137.48C468.901 136.36 469.147 135.367 469.641 134.5C470.134 133.633 470.807 132.967 471.661 132.5C472.514 132.033 473.467 131.8 474.521 131.8C475.574 131.8 476.527 132.033 477.381 132.5C478.234 132.967 478.907 133.633 479.401 134.5C479.894 135.367 480.141 136.36 480.141 137.48C480.141 138.6 479.887 139.593 479.381 140.46C478.874 141.327 478.181 142 477.301 142.48C476.434 142.947 475.474 143.18 474.421 143.18ZM474.421 141.2C475.007 141.2 475.554 141.06 476.061 140.78C476.581 140.5 477.001 140.08 477.321 139.52C477.641 138.96 477.801 138.28 477.801 137.48C477.801 136.68 477.647 136.007 477.341 135.46C477.034 134.9 476.627 134.48 476.121 134.2C475.614 133.92 475.067 133.78 474.481 133.78C473.894 133.78 473.347 133.92 472.841 134.2C472.347 134.48 471.954 134.9 471.661 135.46C471.367 136.007 471.221 136.68 471.221 137.48C471.221 138.667 471.521 139.587 472.121 140.24C472.734 140.88 473.501 141.2 474.421 141.2ZM484.675 133.58C485.008 133.02 485.448 132.587 485.995 132.28C486.555 131.96 487.215 131.8 487.975 131.8V134.16H487.395C486.501 134.16 485.821 134.387 485.355 134.84C484.901 135.293 484.675 136.08 484.675 137.2V143H482.395V131.98H484.675V133.58ZM489.31 137.44C489.31 136.333 489.537 135.353 489.99 134.5C490.457 133.647 491.084 132.987 491.87 132.52C492.67 132.04 493.55 131.8 494.51 131.8C495.377 131.8 496.13 131.973 496.77 132.32C497.424 132.653 497.944 133.073 498.33 133.58V131.98H500.63V143H498.33V141.36C497.944 141.88 497.417 142.313 496.75 142.66C496.084 143.007 495.324 143.18 494.47 143.18C493.524 143.18 492.657 142.94 491.87 142.46C491.084 141.967 490.457 141.287 489.99 140.42C489.537 139.54 489.31 138.547 489.31 137.44ZM498.33 137.48C498.33 136.72 498.17 136.06 497.85 135.5C497.544 134.94 497.137 134.513 496.63 134.22C496.124 133.927 495.577 133.78 494.99 133.78C494.404 133.78 493.857 133.927 493.35 134.22C492.844 134.5 492.43 134.92 492.11 135.48C491.804 136.027 491.65 136.68 491.65 137.44C491.65 138.2 491.804 138.867 492.11 139.44C492.43 140.013 492.844 140.453 493.35 140.76C493.87 141.053 494.417 141.2 494.99 141.2C495.577 141.2 496.124 141.053 496.63 140.76C497.137 140.467 497.544 140.04 497.85 139.48C498.17 138.907 498.33 138.24 498.33 137.48ZM509.185 131.8C510.052 131.8 510.825 131.98 511.505 132.34C512.198 132.7 512.738 133.233 513.125 133.94C513.512 134.647 513.705 135.5 513.705 136.5V143H511.445V136.84C511.445 135.853 511.198 135.1 510.705 134.58C510.212 134.047 509.538 133.78 508.685 133.78C507.832 133.78 507.152 134.047 506.645 134.58C506.152 135.1 505.905 135.853 505.905 136.84V143H503.625V131.98H505.905V133.24C506.278 132.787 506.752 132.433 507.325 132.18C507.912 131.927 508.532 131.8 509.185 131.8ZM353.16 173L347.78 166.78V173H345.5V159.1H347.78V165.44L353.18 159.1H356.04L350 166.06L356.14 173H353.16ZM368.256 167.22C368.256 167.633 368.23 168.007 368.176 168.34H359.756C359.823 169.22 360.15 169.927 360.736 170.46C361.323 170.993 362.043 171.26 362.896 171.26C364.123 171.26 364.99 170.747 365.496 169.72H367.956C367.623 170.733 367.016 171.567 366.136 172.22C365.27 172.86 364.19 173.18 362.896 173.18C361.843 173.18 360.896 172.947 360.056 172.48C359.23 172 358.576 171.333 358.096 170.48C357.63 169.613 357.396 168.613 357.396 167.48C357.396 166.347 357.623 165.353 358.076 164.5C358.543 163.633 359.19 162.967 360.016 162.5C360.856 162.033 361.816 161.8 362.896 161.8C363.936 161.8 364.863 162.027 365.676 162.48C366.49 162.933 367.123 163.573 367.576 164.4C368.03 165.213 368.256 166.153 368.256 167.22ZM365.876 166.5C365.863 165.66 365.563 164.987 364.976 164.48C364.39 163.973 363.663 163.72 362.796 163.72C362.01 163.72 361.336 163.973 360.776 164.48C360.216 164.973 359.883 165.647 359.776 166.5H365.876ZM371.66 160.52C371.247 160.52 370.9 160.38 370.62 160.1C370.34 159.82 370.2 159.473 370.2 159.06C370.2 158.647 370.34 158.3 370.62 158.02C370.9 157.74 371.247 157.6 371.66 157.6C372.06 157.6 372.4 157.74 372.68 158.02C372.96 158.3 373.1 158.647 373.1 159.06C373.1 159.473 372.96 159.82 372.68 160.1C372.4 160.38 372.06 160.52 371.66 160.52ZM372.78 175.16C372.78 176.24 372.507 177.02 371.96 177.5C371.427 177.993 370.647 178.24 369.62 178.24H368.44V176.32H369.22C369.687 176.32 370.013 176.227 370.2 176.04C370.4 175.867 370.5 175.573 370.5 175.16V161.98H372.78V175.16ZM375.013 167.44C375.013 166.333 375.24 165.353 375.693 164.5C376.16 163.647 376.787 162.987 377.573 162.52C378.373 162.04 379.253 161.8 380.213 161.8C381.08 161.8 381.833 161.973 382.473 162.32C383.127 162.653 383.647 163.073 384.033 163.58V161.98H386.333V173H384.033V171.36C383.647 171.88 383.12 172.313 382.453 172.66C381.787 173.007 381.027 173.18 380.173 173.18C379.227 173.18 378.36 172.94 377.573 172.46C376.787 171.967 376.16 171.287 375.693 170.42C375.24 169.54 375.013 168.547 375.013 167.44ZM384.033 167.48C384.033 166.72 383.873 166.06 383.553 165.5C383.247 164.94 382.84 164.513 382.333 164.22C381.827 163.927 381.28 163.78 380.693 163.78C380.107 163.78 379.56 163.927 379.053 164.22C378.547 164.5 378.133 164.92 377.813 165.48C377.507 166.027 377.353 166.68 377.353 167.44C377.353 168.2 377.507 168.867 377.813 169.44C378.133 170.013 378.547 170.453 379.053 170.76C379.573 171.053 380.12 171.2 380.693 171.2C381.28 171.2 381.827 171.053 382.333 170.76C382.84 170.467 383.247 170.04 383.553 169.48C383.873 168.907 384.033 168.24 384.033 167.48ZM388.568 167.44C388.568 166.333 388.795 165.353 389.248 164.5C389.715 163.647 390.341 162.987 391.128 162.52C391.928 162.04 392.815 161.8 393.788 161.8C394.508 161.8 395.215 161.96 395.908 162.28C396.615 162.587 397.175 163 397.588 163.52V158.2H399.888V173H397.588V171.34C397.215 171.873 396.695 172.313 396.028 172.66C395.375 173.007 394.621 173.18 393.768 173.18C392.808 173.18 391.928 172.94 391.128 172.46C390.341 171.967 389.715 171.287 389.248 170.42C388.795 169.54 388.568 168.547 388.568 167.44ZM397.588 167.48C397.588 166.72 397.428 166.06 397.108 165.5C396.801 164.94 396.395 164.513 395.888 164.22C395.381 163.927 394.835 163.78 394.248 163.78C393.661 163.78 393.115 163.927 392.608 164.22C392.101 164.5 391.688 164.92 391.368 165.48C391.061 166.027 390.908 166.68 390.908 167.44C390.908 168.2 391.061 168.867 391.368 169.44C391.688 170.013 392.101 170.453 392.608 170.76C393.128 171.053 393.675 171.2 394.248 171.2C394.835 171.2 395.381 171.053 395.888 170.76C396.395 170.467 396.801 170.04 397.108 169.48C397.428 168.907 397.588 168.24 397.588 167.48ZM404.043 160.52C403.629 160.52 403.283 160.38 403.003 160.1C402.723 159.82 402.583 159.473 402.583 159.06C402.583 158.647 402.723 158.3 403.003 158.02C403.283 157.74 403.629 157.6 404.043 157.6C404.443 157.6 404.783 157.74 405.063 158.02C405.343 158.3 405.483 158.647 405.483 159.06C405.483 159.473 405.343 159.82 405.063 160.1C404.783 160.38 404.443 160.52 404.043 160.52ZM405.163 161.98V173H402.883V161.98H405.163ZM407.396 167.44C407.396 166.333 407.623 165.353 408.076 164.5C408.543 163.647 409.17 162.987 409.956 162.52C410.756 162.04 411.636 161.8 412.596 161.8C413.463 161.8 414.216 161.973 414.856 162.32C415.51 162.653 416.03 163.073 416.416 163.58V161.98H418.716V173H416.416V171.36C416.03 171.88 415.503 172.313 414.836 172.66C414.17 173.007 413.41 173.18 412.556 173.18C411.61 173.18 410.743 172.94 409.956 172.46C409.17 171.967 408.543 171.287 408.076 170.42C407.623 169.54 407.396 168.547 407.396 167.44ZM416.416 167.48C416.416 166.72 416.256 166.06 415.936 165.5C415.63 164.94 415.223 164.513 414.716 164.22C414.21 163.927 413.663 163.78 413.076 163.78C412.49 163.78 411.943 163.927 411.436 164.22C410.93 164.5 410.516 164.92 410.196 165.48C409.89 166.027 409.736 166.68 409.736 167.44C409.736 168.2 409.89 168.867 410.196 169.44C410.516 170.013 410.93 170.453 411.436 170.76C411.956 171.053 412.503 171.2 413.076 171.2C413.663 171.2 414.21 171.053 414.716 170.76C415.223 170.467 415.63 170.04 415.936 169.48C416.256 168.907 416.416 168.24 416.416 167.48ZM427.271 161.8C428.138 161.8 428.911 161.98 429.591 162.34C430.284 162.7 430.824 163.233 431.211 163.94C431.598 164.647 431.791 165.5 431.791 166.5V173H429.531V166.84C429.531 165.853 429.284 165.1 428.791 164.58C428.298 164.047 427.624 163.78 426.771 163.78C425.918 163.78 425.238 164.047 424.731 164.58C424.238 165.1 423.991 165.853 423.991 166.84V173H421.711V161.98H423.991V163.24C424.364 162.787 424.838 162.433 425.411 162.18C425.998 161.927 426.618 161.8 427.271 161.8Z" fill="#436850"/>
<path fill-rule="evenodd" clip-rule="evenodd" d="M110.83 114.155C103.923 125.995 100.47 142.522 100.47 163.735C100.47 184.11 103.547 200.198 109.702 212H130.381C129.476 211.337 128.632 210.604 127.85 209.8C123.533 205.237 120.635 199.193 119.155 191.67C117.798 184.147 117.12 174.835 117.12 163.735C117.12 153.005 117.798 143.94 119.155 136.54C120.635 129.017 123.533 122.973 127.85 118.41C132.29 113.847 138.703 111.565 147.09 111.565C155.353 111.565 161.643 113.847 165.96 118.41C170.4 122.973 173.298 129.017 174.655 136.54C176.135 143.94 176.875 153.005 176.875 163.735C176.875 174.835 176.135 184.147 174.655 191.67C173.298 199.193 170.4 205.237 165.96 209.8C165.199 210.604 164.377 211.337 163.494 212H184.293C190.447 200.198 193.525 184.11 193.525 163.735C193.525 142.522 190.071 125.995 183.165 114.155C176.258 102.192 164.233 96.2099 147.09 96.2099C129.823 96.2099 117.736 102.192 110.83 114.155ZM245.434 212H222.636C234.522 202.324 244.116 194.191 251.417 187.6C260.297 179.46 267.758 171.012 273.802 162.255C279.968 153.375 283.052 144.68 283.052 136.17C283.052 128.153 281.078 121.863 277.132 117.3C273.308 112.613 267.08 110.27 258.447 110.27C250.06 110.27 243.523 112.922 238.837 118.225C234.273 123.405 231.807 130.373 231.437 139.13H215.157C215.65 125.317 219.843 114.648 227.737 107.125C235.63 99.6015 245.805 95.8398 258.262 95.8398C270.965 95.8398 281.017 99.3548 288.417 106.385C295.94 113.415 299.702 123.097 299.702 135.43C299.702 145.667 296.618 155.657 290.452 165.4C284.408 175.02 277.502 183.53 269.732 190.93C263.171 197.074 255.072 204.097 245.434 212Z" fill="#F5F5F5"/>
</svg>
