<svg width="569" height="215" viewBox="0 0 569 215" fill="none" xmlns="http://www.w3.org/2000/svg">
<rect x="1.5" y="1.5" width="555" height="202" rx="48.5" stroke="#ABABAB" stroke-width="3"/>
<rect x="11" y="10" width="558" height="205" rx="50" fill="#D9D9D9"/>
<path d="M115.78 132.16H120.48V134H113.5V120.1H115.78V132.16ZM121.627 128.44C121.627 127.333 121.853 126.353 122.307 125.5C122.773 124.647 123.4 123.987 124.187 123.52C124.987 123.04 125.867 122.8 126.827 122.8C127.693 122.8 128.447 122.973 129.087 123.32C129.74 123.653 130.26 124.073 130.647 124.58V122.98H132.947V134H130.647V132.36C130.26 132.88 129.733 133.313 129.067 133.66C128.4 134.007 127.64 134.18 126.787 134.18C125.84 134.18 124.973 133.94 124.187 133.46C123.4 132.967 122.773 132.287 122.307 131.42C121.853 130.54 121.627 129.547 121.627 128.44ZM130.647 128.48C130.647 127.72 130.487 127.06 130.167 126.5C129.86 125.94 129.453 125.513 128.947 125.22C128.44 124.927 127.893 124.78 127.307 124.78C126.72 124.78 126.173 124.927 125.667 125.22C125.16 125.5 124.747 125.92 124.427 126.48C124.12 127.027 123.967 127.68 123.967 128.44C123.967 129.2 124.12 129.867 124.427 130.44C124.747 131.013 125.16 131.453 125.667 131.76C126.187 132.053 126.733 132.2 127.307 132.2C127.893 132.2 128.44 132.053 128.947 131.76C129.453 131.467 129.86 131.04 130.167 130.48C130.487 129.907 130.647 129.24 130.647 128.48ZM138.221 124.6C138.608 124.093 139.135 123.667 139.801 123.32C140.468 122.973 141.221 122.8 142.061 122.8C143.021 122.8 143.895 123.04 144.681 123.52C145.481 123.987 146.108 124.647 146.561 125.5C147.015 126.353 147.241 127.333 147.241 128.44C147.241 129.547 147.015 130.54 146.561 131.42C146.108 132.287 145.481 132.967 144.681 133.46C143.895 133.94 143.021 134.18 142.061 134.18C141.221 134.18 140.475 134.013 139.821 133.68C139.168 133.333 138.635 132.907 138.221 132.4V139.24H135.941V122.98H138.221V124.6ZM144.921 128.44C144.921 127.68 144.761 127.027 144.441 126.48C144.135 125.92 143.721 125.5 143.201 125.22C142.695 124.927 142.148 124.78 141.561 124.78C140.988 124.78 140.441 124.927 139.921 125.22C139.415 125.513 139.001 125.94 138.681 126.5C138.375 127.06 138.221 127.72 138.221 128.48C138.221 129.24 138.375 129.907 138.681 130.48C139.001 131.04 139.415 131.467 139.921 131.76C140.441 132.053 140.988 132.2 141.561 132.2C142.148 132.2 142.695 132.053 143.201 131.76C143.721 131.453 144.135 131.013 144.441 130.44C144.761 129.867 144.921 129.2 144.921 128.44ZM154.276 134.18C153.236 134.18 152.296 133.947 151.456 133.48C150.616 133 149.956 132.333 149.476 131.48C148.996 130.613 148.756 129.613 148.756 128.48C148.756 127.36 149.003 126.367 149.496 125.5C149.989 124.633 150.663 123.967 151.516 123.5C152.369 123.033 153.323 122.8 154.376 122.8C155.429 122.8 156.383 123.033 157.236 123.5C158.089 123.967 158.763 124.633 159.256 125.5C159.749 126.367 159.996 127.36 159.996 128.48C159.996 129.6 159.743 130.593 159.236 131.46C158.729 132.327 158.036 133 157.156 133.48C156.289 133.947 155.329 134.18 154.276 134.18ZM154.276 132.2C154.863 132.2 155.409 132.06 155.916 131.78C156.436 131.5 156.856 131.08 157.176 130.52C157.496 129.96 157.656 129.28 157.656 128.48C157.656 127.68 157.503 127.007 157.196 126.46C156.889 125.9 156.483 125.48 155.976 125.2C155.469 124.92 154.923 124.78 154.336 124.78C153.749 124.78 153.203 124.92 152.696 125.2C152.203 125.48 151.809 125.9 151.516 126.46C151.223 127.007 151.076 127.68 151.076 128.48C151.076 129.667 151.376 130.587 151.976 131.24C152.589 131.88 153.356 132.2 154.276 132.2ZM164.53 124.58C164.863 124.02 165.303 123.587 165.85 123.28C166.41 122.96 167.07 122.8 167.83 122.8V125.16H167.25C166.357 125.16 165.677 125.387 165.21 125.84C164.757 126.293 164.53 127.08 164.53 128.2V134H162.25V122.98H164.53V124.58ZM169.166 128.44C169.166 127.333 169.392 126.353 169.846 125.5C170.312 124.647 170.939 123.987 171.726 123.52C172.526 123.04 173.406 122.8 174.366 122.8C175.232 122.8 175.986 122.973 176.626 123.32C177.279 123.653 177.799 124.073 178.186 124.58V122.98H180.486V134H178.186V132.36C177.799 132.88 177.272 133.313 176.606 133.66C175.939 134.007 175.179 134.18 174.326 134.18C173.379 134.18 172.512 133.94 171.726 133.46C170.939 132.967 170.312 132.287 169.846 131.42C169.392 130.54 169.166 129.547 169.166 128.44ZM178.186 128.48C178.186 127.72 178.026 127.06 177.706 126.5C177.399 125.94 176.992 125.513 176.486 125.22C175.979 124.927 175.432 124.78 174.846 124.78C174.259 124.78 173.712 124.927 173.206 125.22C172.699 125.5 172.286 125.92 171.966 126.48C171.659 127.027 171.506 127.68 171.506 128.44C171.506 129.2 171.659 129.867 171.966 130.44C172.286 131.013 172.699 131.453 173.206 131.76C173.726 132.053 174.272 132.2 174.846 132.2C175.432 132.2 175.979 132.053 176.486 131.76C176.992 131.467 177.399 131.04 177.706 130.48C178.026 129.907 178.186 129.24 178.186 128.48ZM189.04 122.8C189.907 122.8 190.68 122.98 191.36 123.34C192.054 123.7 192.594 124.233 192.98 124.94C193.367 125.647 193.56 126.5 193.56 127.5V134H191.3V127.84C191.3 126.853 191.054 126.1 190.56 125.58C190.067 125.047 189.394 124.78 188.54 124.78C187.687 124.78 187.007 125.047 186.5 125.58C186.007 126.1 185.76 126.853 185.76 127.84V134H183.48V122.98H185.76V124.24C186.134 123.787 186.607 123.433 187.18 123.18C187.767 122.927 188.387 122.8 189.04 122.8ZM118.08 164.14C117.147 164.14 116.307 163.98 115.56 163.66C114.813 163.327 114.227 162.86 113.8 162.26C113.373 161.66 113.16 160.96 113.16 160.16H115.6C115.653 160.76 115.887 161.253 116.3 161.64C116.727 162.027 117.32 162.22 118.08 162.22C118.867 162.22 119.48 162.033 119.92 161.66C120.36 161.273 120.58 160.78 120.58 160.18C120.58 159.713 120.44 159.333 120.16 159.04C119.893 158.747 119.553 158.52 119.14 158.36C118.74 158.2 118.18 158.027 117.46 157.84C116.553 157.6 115.813 157.36 115.24 157.12C114.68 156.867 114.2 156.48 113.8 155.96C113.4 155.44 113.2 154.747 113.2 153.88C113.2 153.08 113.4 152.38 113.8 151.78C114.2 151.18 114.76 150.72 115.48 150.4C116.2 150.08 117.033 149.92 117.98 149.92C119.327 149.92 120.427 150.26 121.28 150.94C122.147 151.607 122.627 152.527 122.72 153.7H120.2C120.16 153.193 119.92 152.76 119.48 152.4C119.04 152.04 118.46 151.86 117.74 151.86C117.087 151.86 116.553 152.027 116.14 152.36C115.727 152.693 115.52 153.173 115.52 153.8C115.52 154.227 115.647 154.58 115.9 154.86C116.167 155.127 116.5 155.34 116.9 155.5C117.3 155.66 117.847 155.833 118.54 156.02C119.46 156.273 120.207 156.527 120.78 156.78C121.367 157.033 121.86 157.427 122.26 157.96C122.673 158.48 122.88 159.18 122.88 160.06C122.88 160.767 122.687 161.433 122.3 162.06C121.927 162.687 121.373 163.193 120.64 163.58C119.92 163.953 119.067 164.14 118.08 164.14ZM135.67 158.22C135.67 158.633 135.644 159.007 135.59 159.34H127.17C127.237 160.22 127.564 160.927 128.15 161.46C128.737 161.993 129.457 162.26 130.31 162.26C131.537 162.26 132.404 161.747 132.91 160.72H135.37C135.037 161.733 134.43 162.567 133.55 163.22C132.684 163.86 131.604 164.18 130.31 164.18C129.257 164.18 128.31 163.947 127.47 163.48C126.644 163 125.99 162.333 125.51 161.48C125.044 160.613 124.81 159.613 124.81 158.48C124.81 157.347 125.037 156.353 125.49 155.5C125.957 154.633 126.604 153.967 127.43 153.5C128.27 153.033 129.23 152.8 130.31 152.8C131.35 152.8 132.277 153.027 133.09 153.48C133.904 153.933 134.537 154.573 134.99 155.4C135.444 156.213 135.67 157.153 135.67 158.22ZM133.29 157.5C133.277 156.66 132.977 155.987 132.39 155.48C131.804 154.973 131.077 154.72 130.21 154.72C129.424 154.72 128.75 154.973 128.19 155.48C127.63 155.973 127.297 156.647 127.19 157.5H133.29ZM140.194 149.2V164H137.914V149.2H140.194ZM153.288 158.22C153.288 158.633 153.261 159.007 153.208 159.34H144.788C144.854 160.22 145.181 160.927 145.768 161.46C146.354 161.993 147.074 162.26 147.928 162.26C149.154 162.26 150.021 161.747 150.528 160.72H152.987C152.654 161.733 152.048 162.567 151.168 163.22C150.301 163.86 149.221 164.18 147.928 164.18C146.874 164.18 145.928 163.947 145.088 163.48C144.261 163 143.608 162.333 143.128 161.48C142.661 160.613 142.428 159.613 142.428 158.48C142.428 157.347 142.654 156.353 143.108 155.5C143.574 154.633 144.221 153.967 145.048 153.5C145.888 153.033 146.848 152.8 147.928 152.8C148.968 152.8 149.894 153.027 150.708 153.48C151.521 153.933 152.154 154.573 152.608 155.4C153.061 156.213 153.288 157.153 153.288 158.22ZM150.908 157.5C150.894 156.66 150.594 155.987 150.008 155.48C149.421 154.973 148.694 154.72 147.828 154.72C147.041 154.72 146.368 154.973 145.808 155.48C145.248 155.973 144.914 156.647 144.808 157.5H150.908ZM159.531 164.18C158.665 164.18 157.885 164.027 157.191 163.72C156.511 163.4 155.971 162.973 155.571 162.44C155.171 161.893 154.958 161.287 154.931 160.62H157.291C157.331 161.087 157.551 161.48 157.951 161.8C158.365 162.107 158.878 162.26 159.491 162.26C160.131 162.26 160.625 162.14 160.971 161.9C161.331 161.647 161.511 161.327 161.511 160.94C161.511 160.527 161.311 160.22 160.911 160.02C160.525 159.82 159.905 159.6 159.051 159.36C158.225 159.133 157.551 158.913 157.031 158.7C156.511 158.487 156.058 158.16 155.671 157.72C155.298 157.28 155.111 156.7 155.111 155.98C155.111 155.393 155.285 154.86 155.631 154.38C155.978 153.887 156.471 153.5 157.111 153.22C157.765 152.94 158.511 152.8 159.351 152.8C160.605 152.8 161.611 153.12 162.371 153.76C163.145 154.387 163.558 155.247 163.611 156.34H161.331C161.291 155.847 161.091 155.453 160.731 155.16C160.371 154.867 159.885 154.72 159.271 154.72C158.671 154.72 158.211 154.833 157.891 155.06C157.571 155.287 157.411 155.587 157.411 155.96C157.411 156.253 157.518 156.5 157.731 156.7C157.945 156.9 158.205 157.06 158.511 157.18C158.818 157.287 159.271 157.427 159.871 157.6C160.671 157.813 161.325 158.033 161.831 158.26C162.351 158.473 162.798 158.793 163.171 159.22C163.545 159.647 163.738 160.213 163.751 160.92C163.751 161.547 163.578 162.107 163.231 162.6C162.885 163.093 162.391 163.48 161.751 163.76C161.125 164.04 160.385 164.18 159.531 164.18ZM165.455 158.44C165.455 157.333 165.682 156.353 166.135 155.5C166.602 154.647 167.228 153.987 168.015 153.52C168.815 153.04 169.695 152.8 170.655 152.8C171.522 152.8 172.275 152.973 172.915 153.32C173.568 153.653 174.088 154.073 174.475 154.58V152.98H176.775V164H174.475V162.36C174.088 162.88 173.562 163.313 172.895 163.66C172.228 164.007 171.468 164.18 170.615 164.18C169.668 164.18 168.802 163.94 168.015 163.46C167.228 162.967 166.602 162.287 166.135 161.42C165.682 160.54 165.455 159.547 165.455 158.44ZM174.475 158.48C174.475 157.72 174.315 157.06 173.995 156.5C173.688 155.94 173.282 155.513 172.775 155.22C172.268 154.927 171.722 154.78 171.135 154.78C170.548 154.78 170.002 154.927 169.495 155.22C168.988 155.5 168.575 155.92 168.255 156.48C167.948 157.027 167.795 157.68 167.795 158.44C167.795 159.2 167.948 159.867 168.255 160.44C168.575 161.013 168.988 161.453 169.495 161.76C170.015 162.053 170.562 162.2 171.135 162.2C171.722 162.2 172.268 162.053 172.775 161.76C173.282 161.467 173.688 161.04 173.995 160.48C174.315 159.907 174.475 159.24 174.475 158.48ZM180.93 151.52C180.516 151.52 180.17 151.38 179.89 151.1C179.61 150.82 179.47 150.473 179.47 150.06C179.47 149.647 179.61 149.3 179.89 149.02C180.17 148.74 180.516 148.6 180.93 148.6C181.33 148.6 181.67 148.74 181.95 149.02C182.23 149.3 182.37 149.647 182.37 150.06C182.37 150.473 182.23 150.82 181.95 151.1C181.67 151.38 181.33 151.52 180.93 151.52ZM182.05 152.98V164H179.77V152.98H182.05Z" fill="#436850"/>
<path fill-rule="evenodd" clip-rule="evenodd" d="M291.83 115.155C284.923 126.995 281.47 143.521 281.47 164.735C281.47 186.285 284.912 203.04 291.798 215H314.737C312.492 213.926 310.53 212.526 308.85 210.8C304.533 206.236 301.635 200.193 300.155 192.67C298.798 185.146 298.12 175.835 298.12 164.735C298.12 154.005 298.798 144.94 300.155 137.54C301.635 130.016 304.533 123.973 308.85 119.41C313.29 114.846 319.703 112.565 328.09 112.565C336.353 112.565 342.643 114.846 346.96 119.41C351.4 123.973 354.298 130.016 355.655 137.54C357.135 144.94 357.875 154.005 357.875 164.735C357.875 175.835 357.135 185.146 355.655 192.67C354.298 200.193 351.4 206.236 346.96 210.8C345.326 212.526 343.411 213.926 341.212 215H364.196C371.082 203.04 374.525 186.285 374.525 164.735C374.525 143.521 371.071 126.995 364.165 115.155C357.258 103.191 345.233 97.2098 328.09 97.2098C310.823 97.2098 298.736 103.191 291.83 115.155ZM479.571 215C482.422 209.578 483.847 203.553 483.847 196.925C483.847 187.551 481.503 179.966 476.817 174.17C472.13 168.373 465.778 164.488 457.762 162.515V161.59C464.792 159.986 470.465 156.41 474.782 150.86C479.222 145.31 481.442 138.711 481.442 131.065C481.442 124.528 479.838 118.67 476.632 113.49C473.548 108.31 468.923 104.24 462.757 101.28C456.713 98.1965 449.498 96.6548 441.112 96.6548C428.532 96.6548 418.295 99.8615 410.402 106.275C402.508 112.688 398.13 121.568 397.267 132.915H413.732C414.595 126.255 417.37 120.951 422.057 117.005C426.743 113.058 432.91 111.085 440.557 111.085C448.45 111.085 454.493 113.058 458.687 117.005C463.003 120.951 465.162 126.193 465.162 132.73C465.162 140.376 462.263 146.05 456.467 149.75C450.67 153.326 442.098 155.176 430.752 155.3H426.312V169.36H430.567C443.023 169.36 452.335 171.395 458.502 175.465C464.668 179.535 467.752 186.195 467.752 195.445C467.752 202.598 465.47 208.456 460.907 213.02C460.189 213.738 459.416 214.398 458.588 215H479.571ZM423.613 215H401.553C397.964 209.31 395.856 202.483 395.232 194.52H411.512C412.375 201.92 415.397 207.963 420.577 212.65C421.53 213.513 422.542 214.296 423.613 215Z" fill="#F5F5F5"/>
</svg>
