<svg width="570" height="213" viewBox="0 0 570 213" fill="none" xmlns="http://www.w3.org/2000/svg">
<rect x="1.5" y="1.5" width="555.168" height="201.46" rx="48.5" stroke="#436850" stroke-width="3"/>
<rect x="11" y="8" width="558.168" height="204.46" rx="50" fill="#436850"/>
<path d="M363.14 129.1V143H360.86V133.48L356.62 143H355.04L350.78 133.48V143H348.5V129.1H350.96L355.84 140L360.7 129.1H363.14ZM365.377 137.44C365.377 136.333 365.603 135.353 366.057 134.5C366.523 133.647 367.15 132.987 367.937 132.52C368.737 132.04 369.617 131.8 370.577 131.8C371.443 131.8 372.197 131.973 372.837 132.32C373.49 132.653 374.01 133.073 374.397 133.58V131.98H376.697V143H374.397V141.36C374.01 141.88 373.483 142.313 372.817 142.66C372.15 143.007 371.39 143.18 370.537 143.18C369.59 143.18 368.723 142.94 367.937 142.46C367.15 141.967 366.523 141.287 366.057 140.42C365.603 139.54 365.377 138.547 365.377 137.44ZM374.397 137.48C374.397 136.72 374.237 136.06 373.917 135.5C373.61 134.94 373.203 134.513 372.697 134.22C372.19 133.927 371.643 133.78 371.057 133.78C370.47 133.78 369.923 133.927 369.417 134.22C368.91 134.5 368.497 134.92 368.177 135.48C367.87 136.027 367.717 136.68 367.717 137.44C367.717 138.2 367.87 138.867 368.177 139.44C368.497 140.013 368.91 140.453 369.417 140.76C369.937 141.053 370.483 141.2 371.057 141.2C371.643 141.2 372.19 141.053 372.697 140.76C373.203 140.467 373.61 140.04 373.917 139.48C374.237 138.907 374.397 138.24 374.397 137.48ZM383.691 143.18C382.825 143.18 382.045 143.027 381.351 142.72C380.671 142.4 380.131 141.973 379.731 141.44C379.331 140.893 379.118 140.287 379.091 139.62H381.451C381.491 140.087 381.711 140.48 382.111 140.8C382.525 141.107 383.038 141.26 383.651 141.26C384.291 141.26 384.785 141.14 385.131 140.9C385.491 140.647 385.671 140.327 385.671 139.94C385.671 139.527 385.471 139.22 385.071 139.02C384.685 138.82 384.065 138.6 383.211 138.36C382.385 138.133 381.711 137.913 381.191 137.7C380.671 137.487 380.218 137.16 379.831 136.72C379.458 136.28 379.271 135.7 379.271 134.98C379.271 134.393 379.445 133.86 379.791 133.38C380.138 132.887 380.631 132.5 381.271 132.22C381.925 131.94 382.671 131.8 383.511 131.8C384.765 131.8 385.771 132.12 386.531 132.76C387.305 133.387 387.718 134.247 387.771 135.34H385.491C385.451 134.847 385.251 134.453 384.891 134.16C384.531 133.867 384.045 133.72 383.431 133.72C382.831 133.72 382.371 133.833 382.051 134.06C381.731 134.287 381.571 134.587 381.571 134.96C381.571 135.253 381.678 135.5 381.891 135.7C382.105 135.9 382.365 136.06 382.671 136.18C382.978 136.287 383.431 136.427 384.031 136.6C384.831 136.813 385.485 137.033 385.991 137.26C386.511 137.473 386.958 137.793 387.331 138.22C387.705 138.647 387.898 139.213 387.911 139.92C387.911 140.547 387.738 141.107 387.391 141.6C387.045 142.093 386.551 142.48 385.911 142.76C385.285 143.04 384.545 143.18 383.691 143.18ZM400.355 131.98V143H398.075V141.7C397.715 142.153 397.242 142.513 396.655 142.78C396.082 143.033 395.468 143.16 394.815 143.16C393.948 143.16 393.168 142.98 392.475 142.62C391.795 142.26 391.255 141.727 390.855 141.02C390.468 140.313 390.275 139.46 390.275 138.46V131.98H392.535V138.12C392.535 139.107 392.782 139.867 393.275 140.4C393.768 140.92 394.442 141.18 395.295 141.18C396.148 141.18 396.822 140.92 397.315 140.4C397.822 139.867 398.075 139.107 398.075 138.12V131.98H400.355ZM407.723 137.5L412.803 143H409.723L405.643 138.26V143H403.363V128.2H405.643V136.8L409.643 131.98H412.803L407.723 137.5ZM428.013 140.16H422.193L421.193 143H418.813L423.793 129.08H426.433L431.413 143H429.013L428.013 140.16ZM427.373 138.3L425.113 131.84L422.833 138.3H427.373ZM437.938 137.5L443.018 143H439.938L435.858 138.26V143H433.578V128.2H435.858V136.8L439.858 131.98H443.018L437.938 137.5ZM454.632 131.98V143H452.352V141.7C451.992 142.153 451.519 142.513 450.932 142.78C450.359 143.033 449.746 143.16 449.092 143.16C448.226 143.16 447.446 142.98 446.752 142.62C446.072 142.26 445.532 141.727 445.132 141.02C444.746 140.313 444.552 139.46 444.552 138.46V131.98H446.812V138.12C446.812 139.107 447.059 139.867 447.552 140.4C448.046 140.92 448.719 141.18 449.572 141.18C450.426 141.18 451.099 140.92 451.592 140.4C452.099 139.867 452.352 139.107 452.352 138.12V131.98H454.632ZM463.201 131.8C464.067 131.8 464.841 131.98 465.521 132.34C466.214 132.7 466.754 133.233 467.141 133.94C467.527 134.647 467.721 135.5 467.721 136.5V143H465.461V136.84C465.461 135.853 465.214 135.1 464.721 134.58C464.227 134.047 463.554 133.78 462.701 133.78C461.847 133.78 461.167 134.047 460.661 134.58C460.167 135.1 459.921 135.853 459.921 136.84V143H457.641V131.98H459.921V133.24C460.294 132.787 460.767 132.433 461.341 132.18C461.927 131.927 462.547 131.8 463.201 131.8ZM357.48 159.1V160.96H353.78V173H351.5V160.96H347.78V159.1H357.48ZM369.889 167.22C369.889 167.633 369.862 168.007 369.809 168.34H361.389C361.456 169.22 361.782 169.927 362.369 170.46C362.956 170.993 363.676 171.26 364.529 171.26C365.756 171.26 366.622 170.747 367.129 169.72H369.589C369.256 170.733 368.649 171.567 367.769 172.22C366.902 172.86 365.822 173.18 364.529 173.18C363.476 173.18 362.529 172.947 361.689 172.48C360.862 172 360.209 171.333 359.729 170.48C359.262 169.613 359.029 168.613 359.029 167.48C359.029 166.347 359.256 165.353 359.709 164.5C360.176 163.633 360.822 162.967 361.649 162.5C362.489 162.033 363.449 161.8 364.529 161.8C365.569 161.8 366.496 162.027 367.309 162.48C368.122 162.933 368.756 163.573 369.209 164.4C369.662 165.213 369.889 166.153 369.889 167.22ZM367.509 166.5C367.496 165.66 367.196 164.987 366.609 164.48C366.022 163.973 365.296 163.72 364.429 163.72C363.642 163.72 362.969 163.973 362.409 164.48C361.849 164.973 361.516 165.647 361.409 166.5H367.509ZM374.413 163.58C374.746 163.02 375.186 162.587 375.733 162.28C376.293 161.96 376.953 161.8 377.713 161.8V164.16H377.133C376.239 164.16 375.559 164.387 375.093 164.84C374.639 165.293 374.413 166.08 374.413 167.2V173H372.133V161.98H374.413V163.58ZM382.089 158.2V173H379.809V158.2H382.089ZM395.182 167.22C395.182 167.633 395.155 168.007 395.102 168.34H386.682C386.749 169.22 387.075 169.927 387.662 170.46C388.249 170.993 388.969 171.26 389.822 171.26C391.049 171.26 391.915 170.747 392.422 169.72H394.882C394.549 170.733 393.942 171.567 393.062 172.22C392.195 172.86 391.115 173.18 389.822 173.18C388.769 173.18 387.822 172.947 386.982 172.48C386.155 172 385.502 171.333 385.022 170.48C384.555 169.613 384.322 168.613 384.322 167.48C384.322 166.347 384.549 165.353 385.002 164.5C385.469 163.633 386.115 162.967 386.942 162.5C387.782 162.033 388.742 161.8 389.822 161.8C390.862 161.8 391.789 162.027 392.602 162.48C393.415 162.933 394.049 163.573 394.502 164.4C394.955 165.213 395.182 166.153 395.182 167.22ZM392.802 166.5C392.789 165.66 392.489 164.987 391.902 164.48C391.315 163.973 390.589 163.72 389.722 163.72C388.935 163.72 388.262 163.973 387.702 164.48C387.142 164.973 386.809 165.647 386.702 166.5H392.802ZM399.706 163.62C400.092 163.087 400.619 162.653 401.286 162.32C401.966 161.973 402.719 161.8 403.546 161.8C404.519 161.8 405.399 162.033 406.186 162.5C406.972 162.967 407.592 163.633 408.046 164.5C408.499 165.353 408.726 166.333 408.726 167.44C408.726 168.547 408.499 169.54 408.046 170.42C407.592 171.287 406.966 171.967 406.166 172.46C405.379 172.94 404.506 173.18 403.546 173.18C402.692 173.18 401.932 173.013 401.266 172.68C400.612 172.347 400.092 171.92 399.706 171.4V173H397.426V158.2H399.706V163.62ZM406.406 167.44C406.406 166.68 406.246 166.027 405.926 165.48C405.619 164.92 405.206 164.5 404.686 164.22C404.179 163.927 403.632 163.78 403.046 163.78C402.472 163.78 401.926 163.927 401.406 164.22C400.899 164.513 400.486 164.94 400.166 165.5C399.859 166.06 399.706 166.72 399.706 167.48C399.706 168.24 399.859 168.907 400.166 169.48C400.486 170.04 400.899 170.467 401.406 170.76C401.926 171.053 402.472 171.2 403.046 171.2C403.632 171.2 404.179 171.053 404.686 170.76C405.206 170.453 405.619 170.013 405.926 169.44C406.246 168.867 406.406 168.2 406.406 167.44ZM412.14 160.52C411.727 160.52 411.38 160.38 411.1 160.1C410.82 159.82 410.68 159.473 410.68 159.06C410.68 158.647 410.82 158.3 411.1 158.02C411.38 157.74 411.727 157.6 412.14 157.6C412.54 157.6 412.88 157.74 413.16 158.02C413.44 158.3 413.58 158.647 413.58 159.06C413.58 159.473 413.44 159.82 413.16 160.1C412.88 160.38 412.54 160.52 412.14 160.52ZM413.26 161.98V173H410.98V161.98H413.26ZM421.954 161.8C422.794 161.8 423.541 161.98 424.194 162.34C424.861 162.7 425.381 163.233 425.754 163.94C426.141 164.647 426.334 165.5 426.334 166.5V173H424.074V166.84C424.074 165.853 423.827 165.1 423.334 164.58C422.841 164.047 422.167 163.78 421.314 163.78C420.461 163.78 419.781 164.047 419.274 164.58C418.781 165.1 418.534 165.853 418.534 166.84V173H416.254V158.2H418.534V163.26C418.921 162.793 419.407 162.433 419.994 162.18C420.594 161.927 421.247 161.8 421.954 161.8ZM438.978 159.1C440.458 159.1 441.751 159.387 442.858 159.96C443.978 160.52 444.838 161.333 445.438 162.4C446.051 163.453 446.358 164.687 446.358 166.1C446.358 167.513 446.051 168.74 445.438 169.78C444.838 170.82 443.978 171.62 442.858 172.18C441.751 172.727 440.458 173 438.978 173H434.438V159.1H438.978ZM438.978 171.14C440.604 171.14 441.851 170.7 442.718 169.82C443.584 168.94 444.018 167.7 444.018 166.1C444.018 164.487 443.584 163.227 442.718 162.32C441.851 161.413 440.604 160.96 438.978 160.96H436.718V171.14H438.978ZM447.857 167.44C447.857 166.333 448.084 165.353 448.537 164.5C449.004 163.647 449.631 162.987 450.417 162.52C451.217 162.04 452.097 161.8 453.057 161.8C453.924 161.8 454.677 161.973 455.317 162.32C455.971 162.653 456.491 163.073 456.877 163.58V161.98H459.177V173H456.877V171.36C456.491 171.88 455.964 172.313 455.297 172.66C454.631 173.007 453.871 173.18 453.017 173.18C452.071 173.18 451.204 172.94 450.417 172.46C449.631 171.967 449.004 171.287 448.537 170.42C448.084 169.54 447.857 168.547 447.857 167.44ZM456.877 167.48C456.877 166.72 456.717 166.06 456.397 165.5C456.091 164.94 455.684 164.513 455.177 164.22C454.671 163.927 454.124 163.78 453.537 163.78C452.951 163.78 452.404 163.927 451.897 164.22C451.391 164.5 450.977 164.92 450.657 165.48C450.351 166.027 450.197 166.68 450.197 167.44C450.197 168.2 450.351 168.867 450.657 169.44C450.977 170.013 451.391 170.453 451.897 170.76C452.417 171.053 452.964 171.2 453.537 171.2C454.124 171.2 454.671 171.053 455.177 170.76C455.684 170.467 456.091 170.04 456.397 169.48C456.717 168.907 456.877 168.24 456.877 167.48ZM467.872 161.8C468.712 161.8 469.459 161.98 470.112 162.34C470.779 162.7 471.299 163.233 471.672 163.94C472.059 164.647 472.252 165.5 472.252 166.5V173H469.992V166.84C469.992 165.853 469.745 165.1 469.252 164.58C468.759 164.047 468.085 163.78 467.232 163.78C466.379 163.78 465.699 164.047 465.192 164.58C464.699 165.1 464.452 165.853 464.452 166.84V173H462.172V158.2H464.452V163.26C464.839 162.793 465.325 162.433 465.912 162.18C466.512 161.927 467.165 161.8 467.872 161.8ZM485.14 161.98V173H482.86V171.7C482.5 172.153 482.027 172.513 481.44 172.78C480.867 173.033 480.253 173.16 479.6 173.16C478.733 173.16 477.953 172.98 477.26 172.62C476.58 172.26 476.04 171.727 475.64 171.02C475.253 170.313 475.06 169.46 475.06 168.46V161.98H477.32V168.12C477.32 169.107 477.567 169.867 478.06 170.4C478.553 170.92 479.227 171.18 480.08 171.18C480.933 171.18 481.607 170.92 482.1 170.4C482.607 169.867 482.86 169.107 482.86 168.12V161.98H485.14ZM490.428 158.2V173H488.148V158.2H490.428ZM503.402 161.98V173H501.122V171.7C500.762 172.153 500.289 172.513 499.702 172.78C499.129 173.033 498.515 173.16 497.862 173.16C496.995 173.16 496.215 172.98 495.522 172.62C494.842 172.26 494.302 171.727 493.902 171.02C493.515 170.313 493.322 169.46 493.322 168.46V161.98H495.582V168.12C495.582 169.107 495.829 169.867 496.322 170.4C496.815 170.92 497.489 171.18 498.342 171.18C499.195 171.18 499.869 170.92 500.362 170.4C500.869 169.867 501.122 169.107 501.122 168.12V161.98H503.402Z" fill="white"/>
<path fill-rule="evenodd" clip-rule="evenodd" d="M111.83 115.155C104.923 126.995 101.47 143.522 101.47 164.735C101.47 185.11 104.547 201.198 110.702 213H131.381C130.476 212.337 129.632 211.604 128.85 210.8C124.533 206.237 121.635 200.193 120.155 192.67C118.798 185.147 118.12 175.835 118.12 164.735C118.12 154.005 118.798 144.94 120.155 137.54C121.635 130.017 124.533 123.973 128.85 119.41C133.29 114.847 139.703 112.565 148.09 112.565C156.353 112.565 162.643 114.847 166.96 119.41C171.4 123.973 174.298 130.017 175.655 137.54C177.135 144.94 177.875 154.005 177.875 164.735C177.875 175.835 177.135 185.147 175.655 192.67C174.298 200.193 171.4 206.237 166.96 210.8C166.199 211.604 165.377 212.337 164.494 213H185.293C191.447 201.198 194.525 185.11 194.525 164.735C194.525 143.522 191.071 126.995 184.165 115.155C177.258 103.192 165.233 97.21 148.09 97.21C130.823 97.21 118.736 103.192 111.83 115.155ZM247.977 213H230.957V114.6H213.197V99.245H247.977V213Z" fill="#F5F5F5"/>
</svg>
