<svg width="570" height="213" viewBox="0 0 570 213" fill="none" xmlns="http://www.w3.org/2000/svg">
<rect x="1.5" y="1.5" width="555.168" height="201.46" rx="48.5" stroke="#436850" stroke-width="3"/>
<rect x="12" y="8" width="558" height="205" rx="50" fill="#436850"/>
<path d="M131.78 134.16H136.48V136H129.5V122.1H131.78V134.16ZM139.547 123.52C139.133 123.52 138.787 123.38 138.507 123.1C138.227 122.82 138.087 122.473 138.087 122.06C138.087 121.647 138.227 121.3 138.507 121.02C138.787 120.74 139.133 120.6 139.547 120.6C139.947 120.6 140.287 120.74 140.567 121.02C140.847 121.3 140.987 121.647 140.987 122.06C140.987 122.473 140.847 122.82 140.567 123.1C140.287 123.38 139.947 123.52 139.547 123.52ZM140.667 124.98V136H138.387V124.98H140.667ZM149.36 124.8C150.2 124.8 150.947 124.98 151.6 125.34C152.267 125.7 152.787 126.233 153.16 126.94C153.547 127.647 153.74 128.5 153.74 129.5V136H151.48V129.84C151.48 128.853 151.233 128.1 150.74 127.58C150.247 127.047 149.573 126.78 148.72 126.78C147.867 126.78 147.187 127.047 146.68 127.58C146.187 128.1 145.94 128.853 145.94 129.84V136H143.66V121.2H145.94V126.26C146.327 125.793 146.813 125.433 147.4 125.18C148 124.927 148.653 124.8 149.36 124.8ZM155.888 130.44C155.888 129.333 156.115 128.353 156.568 127.5C157.035 126.647 157.662 125.987 158.448 125.52C159.248 125.04 160.128 124.8 161.088 124.8C161.955 124.8 162.708 124.973 163.348 125.32C164.002 125.653 164.522 126.073 164.908 126.58V124.98H167.208V136H164.908V134.36C164.522 134.88 163.995 135.313 163.328 135.66C162.662 136.007 161.902 136.18 161.048 136.18C160.102 136.18 159.235 135.94 158.448 135.46C157.662 134.967 157.035 134.287 156.568 133.42C156.115 132.54 155.888 131.547 155.888 130.44ZM164.908 130.48C164.908 129.72 164.748 129.06 164.428 128.5C164.122 127.94 163.715 127.513 163.208 127.22C162.702 126.927 162.155 126.78 161.568 126.78C160.982 126.78 160.435 126.927 159.928 127.22C159.422 127.5 159.008 127.92 158.688 128.48C158.382 129.027 158.228 129.68 158.228 130.44C158.228 131.2 158.382 131.867 158.688 132.44C159.008 133.013 159.422 133.453 159.928 133.76C160.448 134.053 160.995 134.2 161.568 134.2C162.155 134.2 162.702 134.053 163.208 133.76C163.715 133.467 164.122 133.04 164.428 132.48C164.748 131.907 164.908 131.24 164.908 130.48ZM172.863 126.84V132.94C172.863 133.353 172.956 133.653 173.143 133.84C173.343 134.013 173.676 134.1 174.143 134.1H175.543V136H173.743C172.716 136 171.93 135.76 171.383 135.28C170.836 134.8 170.563 134.02 170.563 132.94V126.84H169.263V124.98H170.563V122.24H172.863V124.98H175.543V126.84H172.863ZM187.38 122.1C188.86 122.1 190.153 122.387 191.26 122.96C192.38 123.52 193.24 124.333 193.84 125.4C194.453 126.453 194.76 127.687 194.76 129.1C194.76 130.513 194.453 131.74 193.84 132.78C193.24 133.82 192.38 134.62 191.26 135.18C190.153 135.727 188.86 136 187.38 136H182.84V122.1H187.38ZM187.38 134.14C189.007 134.14 190.253 133.7 191.12 132.82C191.987 131.94 192.42 130.7 192.42 129.1C192.42 127.487 191.987 126.227 191.12 125.32C190.253 124.413 189.007 123.96 187.38 123.96H185.12V134.14H187.38ZM207.12 130.22C207.12 130.633 207.093 131.007 207.04 131.34H198.62C198.686 132.22 199.013 132.927 199.6 133.46C200.186 133.993 200.906 134.26 201.76 134.26C202.986 134.26 203.853 133.747 204.36 132.72H206.82C206.486 133.733 205.88 134.567 205 135.22C204.133 135.86 203.053 136.18 201.76 136.18C200.706 136.18 199.76 135.947 198.92 135.48C198.093 135 197.44 134.333 196.96 133.48C196.493 132.613 196.26 131.613 196.26 130.48C196.26 129.347 196.486 128.353 196.94 127.5C197.406 126.633 198.053 125.967 198.88 125.5C199.72 125.033 200.68 124.8 201.76 124.8C202.8 124.8 203.726 125.027 204.54 125.48C205.353 125.933 205.986 126.573 206.44 127.4C206.893 128.213 207.12 129.153 207.12 130.22ZM204.74 129.5C204.726 128.66 204.426 127.987 203.84 127.48C203.253 126.973 202.526 126.72 201.66 126.72C200.873 126.72 200.2 126.973 199.64 127.48C199.08 127.973 198.746 128.647 198.64 129.5H204.74ZM212.023 126.84V132.94C212.023 133.353 212.117 133.653 212.303 133.84C212.503 134.013 212.837 134.1 213.303 134.1H214.703V136H212.903C211.877 136 211.09 135.76 210.543 135.28C209.997 134.8 209.723 134.02 209.723 132.94V126.84H208.423V124.98H209.723V122.24H212.023V124.98H214.703V126.84H212.023ZM216.045 130.44C216.045 129.333 216.271 128.353 216.725 127.5C217.191 126.647 217.818 125.987 218.605 125.52C219.405 125.04 220.285 124.8 221.245 124.8C222.111 124.8 222.865 124.973 223.505 125.32C224.158 125.653 224.678 126.073 225.065 126.58V124.98H227.365V136H225.065V134.36C224.678 134.88 224.151 135.313 223.485 135.66C222.818 136.007 222.058 136.18 221.205 136.18C220.258 136.18 219.391 135.94 218.605 135.46C217.818 134.967 217.191 134.287 216.725 133.42C216.271 132.54 216.045 131.547 216.045 130.44ZM225.065 130.48C225.065 129.72 224.905 129.06 224.585 128.5C224.278 127.94 223.871 127.513 223.365 127.22C222.858 126.927 222.311 126.78 221.725 126.78C221.138 126.78 220.591 126.927 220.085 127.22C219.578 127.5 219.165 127.92 218.845 128.48C218.538 129.027 218.385 129.68 218.385 130.44C218.385 131.2 218.538 131.867 218.845 132.44C219.165 133.013 219.578 133.453 220.085 133.76C220.605 134.053 221.151 134.2 221.725 134.2C222.311 134.2 222.858 134.053 223.365 133.76C223.871 133.467 224.278 133.04 224.585 132.48C224.905 131.907 225.065 131.24 225.065 130.48ZM231.519 123.52C231.106 123.52 230.759 123.38 230.479 123.1C230.199 122.82 230.059 122.473 230.059 122.06C230.059 121.647 230.199 121.3 230.479 121.02C230.759 120.74 231.106 120.6 231.519 120.6C231.919 120.6 232.259 120.74 232.539 121.02C232.819 121.3 232.959 121.647 232.959 122.06C232.959 122.473 232.819 122.82 232.539 123.1C232.259 123.38 231.919 123.52 231.519 123.52ZM232.639 124.98V136H230.359V124.98H232.639ZM237.913 121.2V136H235.633V121.2H237.913ZM131.78 164.16H136.48V166H129.5V152.1H131.78V164.16ZM137.627 160.44C137.627 159.333 137.853 158.353 138.307 157.5C138.773 156.647 139.4 155.987 140.187 155.52C140.987 155.04 141.867 154.8 142.827 154.8C143.693 154.8 144.447 154.973 145.087 155.32C145.74 155.653 146.26 156.073 146.647 156.58V154.98H148.947V166H146.647V164.36C146.26 164.88 145.733 165.313 145.067 165.66C144.4 166.007 143.64 166.18 142.787 166.18C141.84 166.18 140.973 165.94 140.187 165.46C139.4 164.967 138.773 164.287 138.307 163.42C137.853 162.54 137.627 161.547 137.627 160.44ZM146.647 160.48C146.647 159.72 146.487 159.06 146.167 158.5C145.86 157.94 145.453 157.513 144.947 157.22C144.44 156.927 143.893 156.78 143.307 156.78C142.72 156.78 142.173 156.927 141.667 157.22C141.16 157.5 140.747 157.92 140.427 158.48C140.12 159.027 139.967 159.68 139.967 160.44C139.967 161.2 140.12 161.867 140.427 162.44C140.747 163.013 141.16 163.453 141.667 163.76C142.187 164.053 142.733 164.2 143.307 164.2C143.893 164.2 144.44 164.053 144.947 163.76C145.453 163.467 145.86 163.04 146.167 162.48C146.487 161.907 146.647 161.24 146.647 160.48ZM154.221 156.6C154.608 156.093 155.135 155.667 155.801 155.32C156.468 154.973 157.221 154.8 158.061 154.8C159.021 154.8 159.895 155.04 160.681 155.52C161.481 155.987 162.108 156.647 162.561 157.5C163.015 158.353 163.241 159.333 163.241 160.44C163.241 161.547 163.015 162.54 162.561 163.42C162.108 164.287 161.481 164.967 160.681 165.46C159.895 165.94 159.021 166.18 158.061 166.18C157.221 166.18 156.475 166.013 155.821 165.68C155.168 165.333 154.635 164.907 154.221 164.4V171.24H151.941V154.98H154.221V156.6ZM160.921 160.44C160.921 159.68 160.761 159.027 160.441 158.48C160.135 157.92 159.721 157.5 159.201 157.22C158.695 156.927 158.148 156.78 157.561 156.78C156.988 156.78 156.441 156.927 155.921 157.22C155.415 157.513 155.001 157.94 154.681 158.5C154.375 159.06 154.221 159.72 154.221 160.48C154.221 161.24 154.375 161.907 154.681 162.48C155.001 163.04 155.415 163.467 155.921 163.76C156.441 164.053 156.988 164.2 157.561 164.2C158.148 164.2 158.695 164.053 159.201 163.76C159.721 163.453 160.135 163.013 160.441 162.44C160.761 161.867 160.921 161.2 160.921 160.44ZM170.276 166.18C169.236 166.18 168.296 165.947 167.456 165.48C166.616 165 165.956 164.333 165.476 163.48C164.996 162.613 164.756 161.613 164.756 160.48C164.756 159.36 165.003 158.367 165.496 157.5C165.989 156.633 166.663 155.967 167.516 155.5C168.369 155.033 169.323 154.8 170.376 154.8C171.429 154.8 172.383 155.033 173.236 155.5C174.089 155.967 174.763 156.633 175.256 157.5C175.749 158.367 175.996 159.36 175.996 160.48C175.996 161.6 175.743 162.593 175.236 163.46C174.729 164.327 174.036 165 173.156 165.48C172.289 165.947 171.329 166.18 170.276 166.18ZM170.276 164.2C170.863 164.2 171.409 164.06 171.916 163.78C172.436 163.5 172.856 163.08 173.176 162.52C173.496 161.96 173.656 161.28 173.656 160.48C173.656 159.68 173.503 159.007 173.196 158.46C172.889 157.9 172.483 157.48 171.976 157.2C171.469 156.92 170.923 156.78 170.336 156.78C169.749 156.78 169.203 156.92 168.696 157.2C168.203 157.48 167.809 157.9 167.516 158.46C167.223 159.007 167.076 159.68 167.076 160.48C167.076 161.667 167.376 162.587 167.976 163.24C168.589 163.88 169.356 164.2 170.276 164.2ZM180.53 156.58C180.863 156.02 181.303 155.587 181.85 155.28C182.41 154.96 183.07 154.8 183.83 154.8V157.16H183.25C182.357 157.16 181.677 157.387 181.21 157.84C180.757 158.293 180.53 159.08 180.53 160.2V166H178.25V154.98H180.53V156.58ZM185.166 160.44C185.166 159.333 185.392 158.353 185.846 157.5C186.312 156.647 186.939 155.987 187.726 155.52C188.526 155.04 189.406 154.8 190.366 154.8C191.232 154.8 191.986 154.973 192.626 155.32C193.279 155.653 193.799 156.073 194.186 156.58V154.98H196.486V166H194.186V164.36C193.799 164.88 193.272 165.313 192.606 165.66C191.939 166.007 191.179 166.18 190.326 166.18C189.379 166.18 188.512 165.94 187.726 165.46C186.939 164.967 186.312 164.287 185.846 163.42C185.392 162.54 185.166 161.547 185.166 160.44ZM194.186 160.48C194.186 159.72 194.026 159.06 193.706 158.5C193.399 157.94 192.992 157.513 192.486 157.22C191.979 156.927 191.432 156.78 190.846 156.78C190.259 156.78 189.712 156.927 189.206 157.22C188.699 157.5 188.286 157.92 187.966 158.48C187.659 159.027 187.506 159.68 187.506 160.44C187.506 161.2 187.659 161.867 187.966 162.44C188.286 163.013 188.699 163.453 189.206 163.76C189.726 164.053 190.272 164.2 190.846 164.2C191.432 164.2 191.979 164.053 192.486 163.76C192.992 163.467 193.399 163.04 193.706 162.48C194.026 161.907 194.186 161.24 194.186 160.48ZM205.04 154.8C205.907 154.8 206.68 154.98 207.36 155.34C208.054 155.7 208.594 156.233 208.98 156.94C209.367 157.647 209.56 158.5 209.56 159.5V166H207.3V159.84C207.3 158.853 207.054 158.1 206.56 157.58C206.067 157.047 205.394 156.78 204.54 156.78C203.687 156.78 203.007 157.047 202.5 157.58C202.007 158.1 201.76 158.853 201.76 159.84V166H199.48V154.98H201.76V156.24C202.134 155.787 202.607 155.433 203.18 155.18C203.767 154.927 204.387 154.8 205.04 154.8Z" fill="#F5F5F5"/>
<path fill-rule="evenodd" clip-rule="evenodd" d="M301.36 114.945C294.453 126.785 291 143.312 291 164.525C291 184.9 294.077 200.988 300.232 212.79H320.911C320.006 212.128 319.162 211.394 318.38 210.59C314.063 206.027 311.165 199.983 309.685 192.46C308.328 184.937 307.65 175.625 307.65 164.525C307.65 153.795 308.328 144.73 309.685 137.33C311.165 129.807 314.063 123.763 318.38 119.2C322.82 114.637 329.233 112.355 337.62 112.355C345.883 112.355 352.173 114.637 356.49 119.2C360.93 123.763 363.828 129.807 365.185 137.33C366.665 144.73 367.405 153.795 367.405 164.525C367.405 175.625 366.665 184.937 365.185 192.46C363.828 199.983 360.93 206.027 356.49 210.59C355.729 211.394 354.907 212.128 354.024 212.79H374.823C380.978 200.988 384.055 184.9 384.055 164.525C384.055 143.312 380.602 126.785 373.695 114.945C366.788 102.982 354.763 97 337.62 97C320.353 97 308.267 102.982 301.36 114.945ZM488.197 212.79H471.547V203.005H403.097V190.24L468.032 100.33H488.197V188.39H506.697V203.005H488.197V212.79ZM422.522 188.39L472.287 117.905V188.39H422.522Z" fill="#F5F5F5"/>
</svg>
